# Alias OBJ Model File
# Exported from SketchUp, (c) 2000-2006 Google, Inc.
# File units = meters

mtllib mx0.mtl

g Mesh1 Model

usemtl Tile_Travertine_2inch
v 0.497907 0 -0.532363
vt 1.04385 0
vn 1 0 -0
v 0.497907 0.2 0.467637
vt -0.916935 0.392157
v 0.497907 0 0.467637
vt -0.916935 0
f 1/1/1 2/2/1 3/3/1

v 0.497907 0.2 -0.532363
vt 1.04385 0.392157
f 2/2/1 1/1/1 4/4/1

vt -0.976287 0
vn 0 0 -1
v -0.502093 0.2 -0.532363
vt 0.984497 0.392157
vt -0.976287 0.392157
f 1/5/2 5/6/2 4/7/2

v -0.502093 0 -0.532363
vt 0.984497 0
f 5/6/2 1/5/2 6/8/2

v -0.502093 0 0.467637
vt 0.916935 0
vn -1 0 -0
vt -1.04385 0.392157
vt -1.04385 0
f 7/9/3 5/10/3 6/11/3

v -0.502093 0.2 0.467637
vt 0.916935 0.392157
f 5/10/3 7/9/3 8/12/3

vt -0.984497 0
vn 0 0 1
vt 0.976287 0.392157
vt -0.984497 0.392157
f 7/13/4 2/14/4 8/15/4

vt 0.976287 0
f 2/14/4 7/13/4 3/16/4

vt 0.976287 -0.916935
vn 0 1 -0
vt -0.984497 1.04385
vt -0.984497 -0.916935
f 2/17/5 5/18/5 8/19/5

vt 0.976287 1.04385
f 5/18/5 2/17/5 4/20/5

g Mesh2 Model

usemtl Stone_Marble
v 0.396261 0.298682 0.360678
vt 0.527975 -1.16875
vn 0 0.961524 0.274721
v -0.403739 0.498682 -0.339322
vt -0.272025 -0.440742
v -0.403739 0.298682 0.360678
vt -0.272025 -1.16875
f 9/21/6 10/22/6 11/23/6

v 0.396261 0.498682 -0.339322
vt 0.527975 -0.440742
f 10/22/6 9/21/6 12/24/6

vt -1.30124 0.3
v 0.396261 0.203732 -0.339322
vt -0.601236 0.20505
vt -0.601236 0.5
f 9/25/1 13/26/1 12/27/1

v 0.396261 0.203732 0.360678
vt -1.30124 0.20505
f 13/26/1 9/25/1 14/28/1

vt 0.527975 0.3
v -0.403739 0.203732 0.360678
vt -0.272025 0.20505
vt 0.527975 0.20505
f 9/29/4 15/30/4 14/31/4

vt -0.272025 0.3
f 15/30/4 9/29/4 11/32/4

vt 0.601236 0.5
vt 1.30124 0.20505
vt 1.30124 0.3
f 10/33/3 15/34/3 11/35/3

v -0.403739 0.203732 -0.339322
vt 0.601236 0.20505
f 15/34/3 10/33/3 16/36/3

